<svg xmlns="http://www.w3.org/2000/svg" xmlns:xlink="http://www.w3.org/1999/xlink" width="76" zoomAndPan="magnify" viewBox="0 0 56.879997 182.249993" height="243" preserveAspectRatio="xMidYMid meet" version="1.0"><defs><clipPath id="aa2a002d94"><path d="M 0.0585938 0 L 56.492188 0 L 56.492188 181 L 0.0585938 181 Z M 0.0585938 0 " clip-rule="nonzero"/></clipPath></defs><g clip-path="url(#aa2a002d94)"><path fill="#000000" d="M 1.925781 0 C 0.296875 0 -0.101562 1.191406 1.183594 2.238281 C 2.585938 3.378906 7.496094 11.015625 11.777344 18.710938 C 19.5625 32.714844 24.175781 47.335938 25.664062 62.746094 L 26.023438 66.492188 L 20.640625 66.492188 C 15.617188 66.492188 15 66.625 11.339844 68.503906 C 4.179688 72.183594 0.207031 78.921875 0.207031 87.378906 C 0.207031 91.078125 0.484375 92.40625 1.859375 95.332031 C 3.960938 99.792969 6.34375 101.621094 10 101.566406 C 17.152344 101.457031 25.273438 92.089844 28.171875 80.617188 C 28.734375 78.398438 29.34375 76.425781 29.53125 76.238281 C 30.066406 75.703125 33.214844 82.800781 34.265625 86.917969 C 36.347656 95.039062 36.964844 100.199219 37.253906 111.835938 C 37.578125 124.761719 37.09375 132.019531 34.785156 148.8125 C 32.910156 162.441406 33.023438 162.152344 31.132812 157.988281 C 29.464844 154.328125 23.5625 144.289062 22.09375 142.625 C 20.496094 140.808594 17.378906 141.671875 17.378906 143.929688 C 17.378906 144.445312 18.128906 146.269531 19.046875 147.988281 C 21.277344 152.171875 23.277344 159.050781 25.375 169.777344 C 26.328125 174.660156 27.109375 178.722656 27.109375 178.804688 C 27.109375 178.886719 27.515625 179.359375 28.007812 179.855469 C 29.609375 181.46875 31.800781 180.953125 33.835938 178.488281 C 34.859375 177.246094 35.695312 175.75 35.695312 175.160156 C 35.695312 172.464844 43.699219 161.265625 51.277344 153.359375 C 55.429688 149.03125 56.300781 147.808594 56.300781 146.308594 C 56.300781 144.707031 56.113281 144.492188 54.710938 144.492188 C 52.199219 144.492188 45.789062 149.558594 41.707031 154.769531 C 40.445312 156.375 39.261719 157.699219 39.070312 157.710938 C 38.878906 157.726562 39.070312 155.726562 39.496094 153.273438 C 40.640625 146.683594 42.441406 129.699219 42.867188 121.46875 C 43.53125 108.667969 41.679688 92.242188 38.488281 82.625 C 36.585938 76.882812 35.285156 74.496094 32.210938 71.097656 C 30.191406 68.863281 30.117188 68.617188 29.730469 63.035156 C 28.578125 46.324219 22.265625 28.433594 11.898438 12.511719 C 6.335938 3.96875 3.171875 0 1.925781 0 Z M 20.238281 70.972656 C 21.183594 70.980469 22.089844 71.109375 22.984375 71.351562 C 25.847656 72.128906 25.921875 72.566406 24.261719 79.097656 C 22.402344 86.414062 18.597656 92.644531 14.140625 95.675781 C 12.929688 96.5 11.425781 97.324219 10.796875 97.507812 C 8.957031 98.042969 6.957031 96.625 5.476562 93.730469 C 1.828125 86.59375 5.792969 75.867188 13.285156 72.628906 C 15.90625 71.492188 18.160156 70.949219 20.238281 70.972656 Z M 20.238281 70.972656 " fill-opacity="1" fill-rule="nonzero"/></g></svg>